<svg width="271" height="278" viewBox="0 0 271 278" fill="none" xmlns="http://www.w3.org/2000/svg">
<ellipse cx="159" cy="153.554" rx="105" ry="100.554" fill="#F4E4D6"/>
<path d="M185.36 73.6895L131.737 92.9392C129.626 93.6975 127.697 94.8901 126.075 96.44C124.453 97.99 123.174 99.8628 122.321 101.938L74.916 217.289C74.1101 219.249 73.7007 221.349 73.7114 223.468C73.7221 225.587 74.1528 227.683 74.9785 229.635C75.8042 231.586 77.0085 233.355 78.5219 234.838C80.0352 236.321 81.8276 237.49 83.7953 238.276L165.793 271.055C167.75 271.839 169.843 272.228 171.952 272.201C174.06 272.174 176.142 271.732 178.08 270.9C180.017 270.067 181.771 268.861 183.241 267.349C184.711 265.838 185.869 264.052 186.648 262.092L232.569 146.609C233.421 144.477 233.805 142.188 233.696 139.895C233.586 137.602 232.985 135.36 231.934 133.319L205.052 81.4196C203.265 77.9623 200.283 75.2722 196.66 73.8501C193.038 72.428 189.022 72.3709 185.36 73.6895ZM191.721 98.9726C193.601 100.791 194.9 103.127 195.453 105.684C196.007 108.241 195.789 110.904 194.829 113.338C193.868 115.771 192.207 117.865 190.057 119.355C187.906 120.844 185.362 121.663 182.746 121.706C180.13 121.75 177.56 121.017 175.361 119.6C173.162 118.183 171.432 116.145 170.391 113.745C169.35 111.345 169.044 108.69 169.511 106.116C169.979 103.542 171.2 101.165 173.018 99.2844C175.455 96.7685 178.791 95.3219 182.293 95.2618C185.795 95.2018 189.178 96.5332 191.699 98.9641L191.721 98.9726Z" fill="#5D4037"/>
<g opacity="0.4">
<path d="M185.36 73.6895L131.737 92.9392C129.626 93.6975 127.697 94.8901 126.075 96.44C124.453 97.99 123.174 99.8628 122.321 101.938L74.916 217.289C74.1101 219.249 73.7007 221.349 73.7114 223.468C73.7221 225.587 74.1528 227.683 74.9785 229.635C75.8042 231.586 77.0085 233.355 78.5219 234.838C80.0352 236.321 81.8276 237.49 83.7953 238.276L165.793 271.055C167.75 271.839 169.843 272.228 171.952 272.201C174.06 272.174 176.142 271.732 178.08 270.9C180.017 270.067 181.771 268.861 183.241 267.349C184.711 265.838 185.869 264.052 186.648 262.092L232.569 146.609C233.421 144.477 233.805 142.188 233.696 139.895C233.586 137.602 232.985 135.36 231.934 133.319L205.052 81.4196C203.265 77.9623 200.283 75.2722 196.66 73.8501C193.038 72.428 189.022 72.3709 185.36 73.6895ZM191.721 98.9726C193.601 100.791 194.9 103.127 195.453 105.684C196.007 108.241 195.789 110.904 194.829 113.338C193.868 115.771 192.207 117.865 190.057 119.355C187.906 120.844 185.362 121.663 182.746 121.706C180.13 121.75 177.56 121.017 175.361 119.6C173.162 118.183 171.432 116.145 170.391 113.745C169.35 111.345 169.044 108.69 169.511 106.116C169.979 103.542 171.2 101.165 173.018 99.2844C175.455 96.7685 178.791 95.3219 182.293 95.2618C185.795 95.2018 189.178 96.5332 191.699 98.9641L191.721 98.9726Z" fill="black"/>
</g>
<path d="M187.811 67.6017L134.182 86.8672C132.071 87.6261 130.142 88.8189 128.52 90.3688C126.899 91.9187 125.619 93.7912 124.766 95.8656L77.3603 211.217C76.5537 213.177 76.1437 215.277 76.154 217.397C76.1644 219.516 76.5949 221.612 77.4207 223.564C78.2464 225.515 79.4511 227.284 80.9648 228.767C82.4786 230.25 84.2715 231.419 86.2397 232.204L168.235 264.989C170.197 265.773 172.295 266.162 174.408 266.133C176.521 266.104 178.607 265.657 180.547 264.82C182.487 263.982 184.242 262.769 185.712 261.251C187.182 259.733 188.337 257.939 189.112 255.973L235.03 140.494C235.882 138.363 236.265 136.074 236.156 133.781C236.046 131.488 235.446 129.246 234.396 127.205L207.511 75.3107C205.721 71.8544 202.736 69.1667 199.112 67.7483C195.488 66.33 191.471 66.2779 187.811 67.6017ZM194.173 92.8795C196.054 94.6982 197.353 97.0337 197.906 99.5907C198.46 102.148 198.242 104.811 197.281 107.245C196.321 109.678 194.66 111.772 192.509 113.262C190.359 114.751 187.815 115.57 185.199 115.613C182.583 115.657 180.013 114.924 177.814 113.507C175.615 112.09 173.885 110.052 172.844 107.652C171.803 105.252 171.496 102.597 171.964 100.023C172.432 97.4492 173.652 95.0717 175.471 93.1913C177.908 90.6754 181.244 89.2288 184.746 89.1687C188.248 89.1087 191.631 90.4401 194.152 92.871L194.173 92.8795Z" fill="#5D4037"/>
<path d="M129.381 204.834C119.487 200.747 115.694 192.11 119.232 183.563C122.77 175.016 131.43 171.623 141.403 175.742C151.377 179.861 155.121 188.393 151.59 196.937C148.059 205.48 139.273 208.926 129.381 204.834ZM137.941 184.13C131.64 181.526 127.629 182.711 126.106 186.403C124.614 190.004 126.673 193.804 132.88 196.369C139.087 198.935 143.223 197.697 144.716 194.096C146.239 190.403 144.227 186.727 137.941 184.13ZM134.365 148.888L138.491 138.911L180.587 203.231L176.461 213.207L134.365 148.888ZM173.566 176.377C163.674 172.285 159.879 163.653 163.38 155.183C166.918 146.636 175.7 143.201 185.589 147.285C195.478 151.37 199.25 159.999 195.704 168.549C192.226 176.992 183.434 180.453 173.566 176.377ZM182.088 155.755C175.886 153.192 171.78 154.338 170.257 158.031C168.765 161.632 170.743 165.392 177.034 167.992C183.325 170.591 187.375 169.325 188.867 165.724C190.369 162.023 188.268 158.31 182.059 155.75L182.088 155.755Z" fill="#FEFEFE"/>
<path d="M210.63 81.2576C211.022 80.9279 211.457 80.6517 211.922 80.4364C212.787 79.9455 214.076 79.2393 215.756 78.3662C217.437 77.4931 219.503 76.4383 221.939 75.2998C224.376 74.1614 227.186 72.9162 230.393 71.751C233.882 70.4553 237.474 69.4568 241.131 68.7662L242.628 68.4993L244.162 68.2959C245.214 68.1462 246.274 68.0534 247.336 68.0179C249.606 67.9011 251.876 68.2205 254.025 68.9588C255.164 69.3777 256.22 69.9936 257.146 70.7782C258.101 71.5927 258.88 72.594 259.434 73.7205C260.55 76.0228 260.907 78.6198 260.454 81.1378C259.971 83.6828 258.935 86.0905 257.419 88.1908C255.909 90.3058 254.159 92.2384 252.204 93.9498C248.348 97.308 243.954 99.9932 239.207 101.893C236.972 102.81 234.683 103.588 232.352 104.223C230.088 104.847 227.858 105.411 225.663 105.916C216.901 107.902 208.828 108.939 202.001 108.886C200.297 108.874 198.683 108.806 197.149 108.691C196.385 108.628 195.64 108.561 194.915 108.459C194.206 108.383 193.504 108.25 192.815 108.061C191.494 107.743 190.35 106.92 189.629 105.768C189.067 104.8 188.811 103.685 188.895 102.57C188.924 102.107 188.996 101.648 189.11 101.198C189.221 100.808 189.364 100.427 189.538 100.06C189.803 99.4816 190.164 98.9518 190.604 98.4922C190.877 98.2153 191.192 97.9824 191.537 97.8021C191.772 97.6886 191.894 97.6457 191.908 97.67C191.923 97.6943 191.821 97.7816 191.619 97.9331C191.325 98.1523 191.059 98.4077 190.829 98.6932C190.456 99.1584 190.156 99.6779 189.939 100.234C189.801 100.588 189.687 100.952 189.599 101.322C189.518 101.742 189.473 102.169 189.466 102.597C189.436 103.586 189.699 104.562 190.224 105.401C190.878 106.365 191.884 107.034 193.026 107.264C193.681 107.426 194.348 107.535 195.02 107.589C195.723 107.67 196.453 107.713 197.206 107.759C198.72 107.833 200.316 107.863 201.996 107.849C208.702 107.774 216.693 106.654 225.352 104.603C227.52 104.087 229.726 103.511 231.97 102.875C234.245 102.241 236.478 101.469 238.658 100.563C243.249 98.7107 247.5 96.1086 251.239 92.863C253.112 91.2207 254.791 89.3686 256.241 87.3432C257.638 85.4197 258.599 83.2145 259.057 80.8816C259.464 78.6645 259.164 76.3756 258.199 74.3382C257.241 72.4238 255.585 70.9503 253.572 70.2218C251.579 69.5357 249.473 69.2368 247.367 69.341C246.344 69.3642 245.323 69.4419 244.309 69.5739L242.826 69.7427L241.346 69.98C237.743 70.6119 234.197 71.5383 230.744 72.7498C227.564 73.8339 224.744 74.9957 222.275 76.0781C219.806 77.1606 217.719 78.1151 216.007 78.9143L212.074 80.7121C211.617 80.9529 211.132 81.1362 210.63 81.2576Z" fill="#263238"/>
<path d="M106.72 103.234C106.69 103.308 95.792 100.636 82.3533 97.2602C68.9147 93.8843 58.0386 91.0805 58.0599 90.9972C58.0812 90.9139 68.9881 93.5953 82.4268 96.9712C95.8654 100.347 106.741 103.151 106.72 103.234Z" fill="#263238"/>
<path d="M67.7996 37.0687C67.8504 37.0998 67.8971 37.1371 67.9387 37.1798L68.3293 37.533L69.8151 38.9089L75.2461 44.0105C79.837 48.3083 86.201 54.2263 93.331 60.6609C100.461 67.0956 106.995 72.8188 111.75 76.9376C114.116 78.9865 116.038 80.6482 117.39 81.8106C118.037 82.3776 118.55 82.8229 118.918 83.1423C119.08 83.2872 119.204 83.4046 119.308 83.4956C119.355 83.5325 119.398 83.5743 119.436 83.6203C119.381 83.5938 119.331 83.5592 119.287 83.5177L118.875 83.1865C118.501 82.8829 117.951 82.4407 117.31 81.9012C115.955 80.7799 114.006 79.1382 111.613 77.0966C106.825 73.0136 100.243 67.3019 93.1343 60.8757C86.0254 54.4496 79.6519 48.5094 75.0981 44.1652C72.8132 42.0206 70.9897 40.2208 69.7347 38.9868L68.2913 37.5667C68.1386 37.4134 68.0186 37.2855 67.9218 37.1914L67.7996 37.0687Z" fill="#263238"/>
<path d="M120.898 22.2567C120.975 22.2326 123.848 32.1534 127.286 44.4273C130.724 56.7012 133.495 66.6482 133.412 66.6702C133.33 66.6921 130.465 56.7681 127.024 44.4995C123.584 32.2309 120.818 22.2734 120.898 22.2567Z" fill="#263238"/>
<path d="M101.28 122.304C101.302 122.386 96.3914 123.796 90.3505 125.475C84.3097 127.153 79.3564 128.442 79.3344 128.39C79.3124 128.338 84.2227 126.897 90.2635 125.219C96.3043 123.541 101.256 122.227 101.28 122.304Z" fill="#263238"/>
<path d="M166.29 44.6681C166.363 44.6978 163.208 48.8238 159.266 53.8395C155.324 58.8553 152.076 62.8765 152.011 62.8257C151.946 62.7749 155.092 58.6701 159.034 53.6543C162.977 48.6386 166.227 44.6121 166.29 44.6681Z" fill="#263238"/>
<path d="M139.387 111.018L138.795 106.798L136.016 103.567L140.238 102.969L143.475 100.193L144.067 104.413L146.843 107.649L142.624 108.241L139.387 111.018Z" fill="#FEFEFE"/>
<path d="M126.492 127.35L126.285 125.87L125.314 124.738L126.788 124.529L127.92 123.558L128.127 125.038L129.098 126.17L127.624 126.379L126.492 127.35Z" fill="#FEFEFE"/>
<path d="M155.462 125.267L155.062 122.411L153.181 120.221L156.037 119.821L158.227 117.94L158.627 120.796L160.508 122.986L157.652 123.386L155.462 125.267Z" fill="#FEFEFE"/>
<path d="M121.849 87.2816L116.622 78.0657C119.853 72.8194 121.005 66.5543 119.852 60.5017C118.698 54.4491 115.323 49.0467 110.389 45.3565C105.454 41.6663 99.3183 39.9551 93.1865 40.5592C87.0546 41.1634 81.3705 44.0391 77.2513 48.6213C73.1321 53.2035 70.8757 59.1607 70.9256 65.322C70.9756 71.4834 73.3282 77.4032 77.5212 81.918C81.7141 86.4328 87.4442 89.2161 93.585 89.7207C99.7258 90.2254 105.833 88.4149 110.707 84.6452L121.849 87.2816Z" fill="white"/>
<path d="M121.85 87.2816L110.685 84.7248C110.675 84.7235 110.666 84.7202 110.658 84.715C110.65 84.7099 110.643 84.7031 110.637 84.695C110.632 84.687 110.628 84.6778 110.627 84.6683C110.625 84.6587 110.626 84.6489 110.628 84.6396C110.628 84.6396 110.628 84.6396 110.628 84.6111L110.73 84.7134C109.168 85.929 107.466 86.9551 105.662 87.7702C103.521 88.7326 101.254 89.385 98.9292 89.7077C97.6383 89.8876 96.3339 89.9523 95.0315 89.9009C94.3554 89.8668 93.6736 89.8498 92.9861 89.7929L90.9009 89.4748C84.6961 88.2578 79.1881 84.7226 75.4975 79.5884C73.4468 76.7471 72.0269 73.5004 71.3328 70.0658C70.6207 66.4338 70.7196 62.6893 71.6226 59.0999C72.5543 55.3496 74.3656 51.875 76.9066 48.9636L77.9123 47.8273C78.2475 47.4523 78.6396 47.1454 78.9975 46.8045C79.3555 46.4636 79.7134 46.117 80.1339 45.833L81.3157 44.9466C81.7051 44.6472 82.1153 44.3757 82.543 44.1341L83.793 43.3784L85.0998 42.7421C85.5287 42.5251 85.9709 42.3354 86.4236 42.1739C89.9307 40.7833 93.7059 40.2007 97.469 40.4693C101.029 40.7098 104.492 41.7321 107.611 43.4637C113.21 46.596 117.39 51.761 119.287 57.8897C120.053 60.4915 120.415 63.1952 120.361 65.9067C120.292 68.2592 119.887 70.5898 119.156 72.8271C118.541 74.6868 117.709 76.4679 116.679 78.1339V78.06L121.844 87.31L116.543 78.0998C116.537 78.0893 116.534 78.0776 116.534 78.0657C116.534 78.0539 116.537 78.0422 116.543 78.0316C117.553 76.3702 118.368 74.597 118.969 72.7476C119.687 70.524 120.081 68.2086 120.139 65.8726C120.182 63.1815 119.816 60.4994 119.054 57.9181C117.149 51.8647 112.997 46.7713 107.452 43.6852C104.366 41.9786 100.942 40.9719 97.4236 40.7364C93.7017 40.4782 89.9694 41.0608 86.5032 42.4409C86.0564 42.6034 85.6199 42.7932 85.1964 43.0091L83.9066 43.6341L82.668 44.3841C82.2468 44.6232 81.8424 44.8909 81.4577 45.1852L80.2873 46.0602C79.8896 46.3443 79.5543 46.708 79.185 47.0261C78.8157 47.3443 78.4407 47.6625 78.1169 48.0318L77.1225 49.1284C74.6094 52.0049 72.8176 55.4387 71.8953 59.1454C71.0019 62.6915 70.901 66.391 71.5998 69.9805C72.2844 73.3768 73.6848 76.5883 75.7078 79.4009C79.3542 84.4869 84.7975 87.9966 90.935 89.2191L92.9975 89.5373C93.6793 89.5941 94.3554 89.6111 95.0202 89.6509C96.3147 89.7059 97.6115 89.6451 98.8952 89.4691C101.21 89.1633 103.47 88.5281 105.605 87.5827C107.401 86.7829 109.097 85.7741 110.656 84.5771C110.663 84.5697 110.672 84.5638 110.681 84.5597C110.69 84.5557 110.7 84.5536 110.71 84.5536C110.721 84.5536 110.731 84.5557 110.74 84.5597C110.749 84.5638 110.757 84.5697 110.764 84.5771C110.773 84.5907 110.778 84.6064 110.778 84.6225C110.778 84.6386 110.773 84.6544 110.764 84.668L110.725 84.5486L121.85 87.2816Z" fill="#263238"/>
<path d="M88.3892 60.4692C88.0036 60.2873 87.5873 60.1794 87.1619 60.151C86.5385 60.051 85.8998 60.1135 85.3076 60.3325C84.7154 60.5514 84.1897 60.9195 83.7812 61.401C86.446 62.9465 90.0767 64.9976 92.6733 66.4805L95.9516 64.6055C93.588 63.3044 90.6221 61.6681 88.3892 60.4692Z" fill="#5D4037"/>
<g opacity="0.3">
<path d="M88.3892 60.4692C88.0036 60.2873 87.5873 60.1794 87.1619 60.151C86.5385 60.051 85.8998 60.1135 85.3076 60.3325C84.7154 60.5514 84.1897 60.9195 83.7812 61.401C86.446 62.9465 90.0767 64.9976 92.6733 66.4805L95.9516 64.6055C93.588 63.3044 90.6221 61.6681 88.3892 60.4692Z" fill="black"/>
</g>
<path d="M98.4292 69.9351L98.3099 69.8328C97.4918 69.3612 96.6054 68.4635 95.7986 68.4805C95.4861 68.4805 95.1452 68.7589 94.3327 69.2135C92.9804 69.9805 90.702 71.3157 89.3384 72.0544C88.202 72.6964 86.7589 73.1907 85.435 72.7589C84.7595 72.5108 84.1383 72.1346 83.6055 71.651L98.4236 63.0601C98.3497 62.8385 98.2702 62.6283 98.1963 62.4124C97.8979 61.543 97.8897 60.6003 98.1731 59.7259C98.4564 58.8516 99.0159 58.0928 99.7675 57.5637C100.519 57.0346 101.422 56.7638 102.341 56.792C103.26 56.8202 104.144 57.1459 104.862 57.7201C105.58 58.2943 106.092 59.0859 106.321 59.976C106.55 60.8662 106.484 61.8066 106.133 62.656C105.782 63.5054 105.164 64.2179 104.373 64.6862C103.583 65.1546 102.661 65.3536 101.747 65.2533C101.406 65.2311 101.065 65.2997 100.759 65.4521C100.191 65.7249 99.6679 66.0714 98.9917 66.4578C100.128 66.9692 100.907 67.7873 102.242 67.6623C104.083 67.4919 105.713 68.8271 106.276 70.6055C106.541 71.4553 106.531 72.367 106.247 73.2108C105.963 74.0545 105.421 74.7872 104.696 75.3043C103.967 75.8278 103.091 76.1066 102.193 76.1008C101.296 76.095 100.423 75.8049 99.7012 75.272C98.979 74.7392 98.4442 73.9911 98.1738 73.1353C97.9034 72.2795 97.9113 71.36 98.1963 70.5089C98.2645 70.3442 98.3611 70.151 98.4292 69.9351ZM102.213 63.1169C102.485 63.12 102.754 63.0685 103.006 62.9655C103.257 62.8624 103.485 62.7099 103.677 62.517C103.868 62.3241 104.019 62.0947 104.12 61.8425C104.221 61.5903 104.27 61.3204 104.264 61.0487C104.256 60.5131 104.038 60.002 103.658 59.6243C103.278 59.2465 102.766 59.0319 102.23 59.026C101.682 59.032 101.157 59.2533 100.771 59.6424C100.384 60.0314 100.165 60.5569 100.162 61.1056C100.178 61.6397 100.401 62.1467 100.784 62.5198C101.166 62.8929 101.679 63.1029 102.213 63.1056V63.1169ZM102.213 73.9578C102.749 73.9626 103.266 73.758 103.653 73.3876C104.04 73.0173 104.268 72.5104 104.287 71.9748C104.299 71.7031 104.255 71.4318 104.159 71.1772C104.064 70.9226 103.917 70.69 103.73 70.4932C103.542 70.2964 103.316 70.1395 103.067 70.0319C102.817 69.9243 102.548 69.8682 102.276 69.8669C101.74 69.8604 101.222 70.0624 100.832 70.4302C100.442 70.798 100.21 71.3029 100.185 71.8385C100.18 72.3815 100.387 72.9051 100.761 73.2985C101.135 73.6919 101.648 73.9243 102.191 73.9464L102.213 73.9578Z" fill="#5D4037"/>
<path d="M96.7021 66.4124C96.6509 66.4124 96.6737 66.0317 96.2532 65.7306C96.1376 65.6505 96.0042 65.5998 95.8646 65.583C95.725 65.5661 95.5834 65.5836 95.4521 65.634C95.2957 65.6962 95.1617 65.804 95.0672 65.9433C94.9728 66.0825 94.9223 66.2469 94.9223 66.4152C94.9223 66.5835 94.9728 66.7479 95.0672 66.8872C95.1617 67.0265 95.2957 67.1342 95.4521 67.1965C95.5834 67.2468 95.725 67.2643 95.8646 67.2475C96.0042 67.2307 96.1376 67.18 96.2532 67.0999C96.6737 66.7988 96.6509 66.401 96.7021 66.4124C96.7532 66.4238 96.7475 66.5033 96.7021 66.6624C96.6683 66.8989 96.5466 67.114 96.3612 67.2647C96.221 67.3809 96.0534 67.4592 95.8743 67.4921C95.6952 67.5249 95.5107 67.5112 95.3384 67.4522C95.1225 67.3779 94.9352 67.238 94.8025 67.0521C94.6699 66.8662 94.5986 66.6436 94.5986 66.4152C94.5986 66.1869 94.6699 65.9642 94.8025 65.7783C94.9352 65.5925 95.1225 65.4526 95.3384 65.3783C95.5107 65.3193 95.6952 65.3056 95.8743 65.3384C96.0534 65.3712 96.221 65.4495 96.3612 65.5658C96.5462 65.7144 96.668 65.9276 96.7021 66.1624C96.7475 66.3215 96.7191 66.4124 96.7021 66.4124Z" fill="#263238"/>
<path d="M100.327 65.6908C100.231 65.7632 100.13 65.8296 100.026 65.8897L99.1791 66.401L96.378 68.0487L93.5371 69.6624L92.6735 70.1396C92.5705 70.2038 92.4621 70.2589 92.3496 70.3044C92.4447 70.2287 92.5453 70.1603 92.6507 70.0999L93.4973 69.5885L96.2984 67.9465L99.1393 66.3328L100.003 65.8499C100.107 65.7886 100.215 65.7355 100.327 65.6908Z" fill="#263238"/>
<path d="M97.8615 63.4181C97.8185 63.4536 97.7729 63.4859 97.7252 63.5147L97.3161 63.7704L95.8047 64.7079C94.532 65.4806 92.765 66.5374 90.782 67.6567L85.7195 70.5317L84.157 71.3612L83.7366 71.5885L83.5889 71.6624C83.5889 71.6624 83.6343 71.6283 83.7252 71.5715L84.1343 71.3215L85.657 70.4294L90.7081 67.526C92.6854 66.3897 94.4581 65.3613 95.7479 64.6113L97.2763 63.7306L97.6967 63.492L97.8615 63.4181Z" fill="#263238"/>
<path d="M56.9134 95.8708L57.993 97.8424L59.9645 98.922L57.993 100.002L56.9134 101.973L55.8339 100.002L53.8623 98.922L55.8339 97.8424L56.9134 95.8708Z" fill="#5D4037"/>
<path d="M64.1182 68.871L65.2375 68.7972L66.1409 68.1267L66.2147 69.2517L66.8852 70.1551L65.7602 70.229L64.8568 70.8937L64.7829 69.7744L64.1182 68.871Z" fill="#5D4037"/>
<path d="M245.855 158.53L246.975 158.456L247.878 157.785L247.952 158.91L248.622 159.814L247.498 159.888L246.594 160.552L246.52 159.433L245.855 158.53Z" fill="#5D4037"/>
<path d="M117.839 102.433L118.958 102.359L119.867 101.695L119.941 102.814L120.606 103.717L119.487 103.791L118.578 104.456L118.509 103.337L117.839 102.433Z" fill="#5D4037"/>
<path d="M124.669 54.4222L125.788 54.3484L126.692 53.6836L126.766 54.8029L127.43 55.7063L126.311 55.7802L125.408 56.4506L125.334 55.3256L124.669 54.4222Z" fill="#5D4037"/>
<path d="M90.2656 84.2175L91.9702 83.2345L92.8736 81.4902L93.8565 83.1948L95.6065 84.1039L93.902 85.0811L92.9929 86.8311L92.0099 85.1266L90.2656 84.2175Z" fill="#5D4037"/>
<path d="M233.475 181.098L235.179 180.115L236.083 178.37L237.066 180.075L238.81 180.978L237.105 181.961L236.202 183.706L235.219 182.001L233.475 181.098Z" fill="#5D4037"/>
<path d="M224.912 149.933L226.617 148.95L227.526 147.206L228.509 148.91L230.253 149.814L228.548 150.797L227.639 152.547L226.662 150.836L224.912 149.933Z" fill="#5D4037"/>
<path d="M66 151.334L68.3155 150.215C69.7323 149.53 71.4373 150.057 72.2215 151.421L72.396 151.724C73.2049 153.131 74.986 153.64 76.4159 152.872L79.2819 151.334" stroke="#302318"/>
<path d="M258.742 158.119L259.586 155.69C260.103 154.204 261.68 153.369 263.199 153.778L263.538 153.869C265.105 154.29 266.723 153.389 267.19 151.835L268.126 148.719" stroke="#302318"/>
<path d="M220.952 231.084C220.952 233.047 219.3 234.668 217.226 234.668C215.152 234.668 213.5 233.047 213.5 231.084C213.5 229.121 215.152 227.5 217.226 227.5C219.3 227.5 220.952 229.121 220.952 231.084Z" stroke="#302318"/>
<path d="M81.9521 172.084C81.9521 174.047 80.3002 175.668 78.2261 175.668C76.152 175.668 74.5 174.047 74.5 172.084C74.5 170.121 76.152 168.5 78.2261 168.5C80.3002 168.5 81.9521 170.121 81.9521 172.084Z" stroke="#302318"/>
<path d="M259.952 118.084C259.952 120.047 258.3 121.668 256.226 121.668C254.152 121.668 252.5 120.047 252.5 118.084C252.5 116.121 254.152 114.5 256.226 114.5C258.3 114.5 259.952 116.121 259.952 118.084Z" stroke="#302318"/>
</svg>
