<svg width="231" height="225" viewBox="0 0 231 225" fill="none" xmlns="http://www.w3.org/2000/svg">
<ellipse cx="125.555" cy="112.599" rx="104.444" ry="99.7643" fill="#F4E4D6"/>
<path d="M198.521 120.031C198.521 156.615 168.497 186.323 131.397 186.323C94.2974 186.323 64.2734 156.615 64.2734 120.031C64.2734 83.4481 94.2974 53.7402 131.397 53.7402C168.497 53.7402 198.521 83.4481 198.521 120.031Z" fill="#795548" stroke="#302318" stroke-width="5"/>
<path d="M195.596 114.454C197.856 154.427 168.945 183.71 130.493 183.71C101.106 180.921 92.0642 169.766 89.3516 167.906L195.596 114.454Z" fill="#5D4037"/>
<path d="M143.769 45.6626C145.426 45.6626 146.769 44.3194 146.769 42.6626V31C146.769 29.3431 145.426 28 143.769 28H116.765C115.108 28 113.765 29.3431 113.765 31V42.6626C113.765 44.3194 115.108 45.6626 116.765 45.6626H130.041H138.405H143.769Z" fill="#382621"/>
<path d="M173.443 60.0715L183.307 66.0812C184.633 66.8892 186.357 66.5514 187.28 65.3026L192.426 58.3419C193.423 56.9936 193.121 55.0901 191.756 54.1163L174.577 41.8613C173.209 40.8859 171.308 41.223 170.359 42.6091L165.122 50.2604C164.214 51.5874 164.513 53.3946 165.801 54.3576L173.443 60.0715Z" fill="#382621"/>
<path d="M170.73 64.2548L173.443 60.0715M173.443 60.0715L183.307 66.0812C184.633 66.8892 186.357 66.5514 187.28 65.3026L192.426 58.3419C193.423 56.9936 193.121 55.0901 191.756 54.1163L174.577 41.8613C173.209 40.8859 171.308 41.223 170.359 42.6091L165.122 50.2604C164.214 51.5874 164.513 53.3946 165.801 54.3576L173.443 60.0715ZM130.041 52.6347V45.6626M130.041 45.6626H116.765C115.108 45.6626 113.765 44.3194 113.765 42.6626V31C113.765 29.3431 115.108 28 116.765 28H143.769C145.426 28 146.769 29.3431 146.769 31V42.6626C146.769 44.3194 145.426 45.6626 143.769 45.6626H138.405H130.041ZM61.7734 86.5654H34.1951M53.1835 103.298H21.9883M50.923 120.961H3M53.1835 140.483H24.701" stroke="#302318" stroke-width="5" stroke-linecap="round"/>
<path d="M65.1836 153.221C71.2208 161.814 73.6357 167.952 88.1251 178.387M94.1623 183.912C115.293 196.802 172.888 203.8 200.418 148.31" stroke="#302318" stroke-width="3" stroke-linecap="round"/>
<mask id="path-7-inside-1_16_1711" fill="white">
<path d="M179.321 120.496C179.321 146.937 157.865 168.371 131.398 168.371C104.93 168.371 83.4746 146.937 83.4746 120.496C83.4746 94.0556 104.93 72.6213 131.398 72.6213C157.865 72.6213 179.321 94.0556 179.321 120.496Z"/>
</mask>
<path d="M179.321 120.496C179.321 146.937 157.865 168.371 131.398 168.371C104.93 168.371 83.4746 146.937 83.4746 120.496C83.4746 94.0556 104.93 72.6213 131.398 72.6213C157.865 72.6213 179.321 94.0556 179.321 120.496Z" fill="#FEFEFE"/>
<path d="M127.541 87.0302C127.541 88.4109 128.661 89.5302 130.041 89.5302C131.422 89.5302 132.541 88.4109 132.541 87.0302H127.541ZM155.558 93.4836C154.502 94.3724 154.366 95.9494 155.254 97.006C156.143 98.0626 157.72 98.1987 158.777 97.3099L155.558 93.4836ZM164.853 120.32C163.473 120.32 162.353 121.44 162.353 122.82C162.353 124.201 163.473 125.32 164.853 125.32V120.32ZM156.026 144.581C154.952 143.713 153.378 143.88 152.51 144.954C151.642 146.028 151.81 147.602 152.884 148.47L156.026 144.581ZM132.541 151.638C132.541 150.257 131.422 149.138 130.041 149.138C128.661 149.138 127.541 150.257 127.541 151.638H132.541ZM106.516 150.128C107.478 149.138 107.456 147.555 106.467 146.592C105.477 145.63 103.894 145.652 102.931 146.641L106.516 150.128ZM98.394 125.32C99.7747 125.32 100.894 124.201 100.894 122.82C100.894 121.44 99.7747 120.32 98.394 120.32V125.32ZM101.989 97.4824C103.141 98.2437 104.692 97.927 105.453 96.7752C106.214 95.6233 105.897 94.0724 104.746 93.3111L101.989 97.4824ZM132.541 108.411C132.541 107.031 131.422 105.911 130.041 105.911C128.661 105.911 127.541 107.031 127.541 108.411H132.541ZM130.041 122.82V125.32C131.422 125.32 132.541 124.201 132.541 122.82H130.041ZM118.739 120.32C117.358 120.32 116.239 121.44 116.239 122.82C116.239 124.201 117.358 125.32 118.739 125.32V120.32ZM127.541 75.8749V87.0302H132.541V75.8749H127.541ZM160.531 89.3003L155.558 93.4836L158.777 97.3099L163.75 93.1266L160.531 89.3003ZM175.252 120.32H164.853V125.32H175.252V120.32ZM162.355 149.693L156.026 144.581L152.884 148.47L159.213 153.583L162.355 149.693ZM132.541 164.188V151.638H127.541V164.188H132.541ZM103.351 153.381L106.516 150.128L102.931 146.641L99.7667 149.895L103.351 153.381ZM87.5435 125.32H98.394V120.32H87.5435V125.32ZM95.6593 93.2991L101.989 97.4824L104.746 93.3111L98.4162 89.1278L95.6593 93.2991ZM127.541 108.411V122.82H132.541V108.411H127.541ZM130.041 120.32H118.739V125.32H130.041V120.32ZM174.321 120.496C174.321 144.171 155.108 163.371 131.398 163.371V173.371C160.621 173.371 184.321 149.703 184.321 120.496H174.321ZM131.398 163.371C107.687 163.371 88.4746 144.171 88.4746 120.496H78.4746C78.4746 149.703 102.174 173.371 131.398 173.371V163.371ZM88.4746 120.496C88.4746 96.8218 107.687 77.6213 131.398 77.6213V67.6213C102.174 67.6213 78.4746 91.2895 78.4746 120.496H88.4746ZM131.398 77.6213C155.108 77.6213 174.321 96.8218 174.321 120.496H184.321C184.321 91.2895 160.621 67.6213 131.398 67.6213V77.6213Z" fill="#302318" mask="url(#path-7-inside-1_16_1711)"/>
<path d="M83.3994 40.2558C83.3994 42.2191 81.7474 43.8397 79.6733 43.8397C77.5992 43.8397 75.9473 42.2191 75.9473 40.2558C75.9473 38.2924 77.5992 36.6719 79.6733 36.6719C81.7474 36.6719 83.3994 38.2924 83.3994 40.2558Z" stroke="#302318"/>
<path d="M207.766 32.0879C207.766 34.0513 206.114 35.6719 204.04 35.6719C201.965 35.6719 200.313 34.0513 200.313 32.0879C200.313 30.1246 201.965 28.504 204.04 28.504C206.114 28.504 207.766 30.1246 207.766 32.0879Z" stroke="#302318"/>
<path d="M190.861 190.777C190.861 192.741 189.209 194.361 187.135 194.361C185.061 194.361 183.409 192.741 183.409 190.777C183.409 188.814 185.061 187.193 187.135 187.193C189.209 187.193 190.861 188.814 190.861 190.777Z" stroke="#302318"/>
<path d="M55.6281 172.108C55.6281 173.427 54.5167 174.525 53.1094 174.525C51.7022 174.525 50.5908 173.427 50.5908 172.108C50.5908 170.789 51.7022 169.691 53.1094 169.691C54.5167 169.691 55.6281 170.789 55.6281 172.108Z" stroke="#302318"/>
<path d="M216.718 109.682L219.033 108.564C220.45 107.879 222.155 108.405 222.939 109.77L223.114 110.073C223.923 111.48 225.704 111.989 227.134 111.221L230 109.682" stroke="#302318"/>
<path d="M87.9734 222.881L88.8238 220.625C89.3818 219.144 91.0473 218.352 92.604 218.827L92.8425 218.9C94.4483 219.39 96.1588 218.531 96.6652 216.981L97.62 214.059" stroke="#302318"/>
<path d="M125.405 10.5176L126.255 8.26125C126.813 6.78058 128.479 5.98849 130.036 6.46342L130.274 6.53621C131.88 7.02612 133.59 6.16749 134.097 4.61729L135.052 1.69492" stroke="#302318"/>
<path d="M23.3249 50.5938L25.6373 51.4335C27.1698 51.9901 27.9785 53.6148 27.4704 55.1164L27.3974 55.3322C26.8733 56.8811 27.7509 58.5504 29.3559 59.0576L32.3557 60.0055" stroke="#302318"/>
</svg>
