<?xml version="1.0" encoding="UTF-8" standalone="no"?>
<!DOCTYPE svg PUBLIC "-//W3C//DTD SVG 1.1//EN" "http://www.w3.org/Graphics/SVG/1.1/DTD/svg11.dtd">
<svg xmlns="http://www.w3.org/2000/svg" version="1.1" viewBox="0.00 0.00 100.00 105.00">
<path stroke="#4c3b38" stroke-width="2.00" fill="none" stroke-linecap="butt" vector-effect="non-scaling-stroke" d="
  M 57.63 92.88
  C 46.87 94.55 32.86 92.02 24.70 83.47
  Q 24.35 83.10 23.85 83.17
  C 18.38 84.00 9.71 85.66 5.52 89.50
  A 1.95 1.95 0.0 0 0 5.36 92.23
  C 7.92 95.20 14.01 96.84 17.71 97.61
  C 34.49 101.06 52.25 101.35 69.25 99.65
  C 76.06 98.97 89.10 97.46 94.15 92.39
  A 2.10 2.09 42.3 0 0 94.00 89.30
  C 89.42 85.48 81.50 84.00 75.64 83.15
  A 1.49 1.48 24.1 0 0 74.29 83.66
  Q 67.93 91.27 57.63 92.88"
/>
<path fill="#362926" d="
  M 46.89 35.46
  C 51.21 35.52 87.75 35.01 80.42 46.14
  C 77.76 50.19 68.99 52.89 64.51 53.78
  C 53.40 55.99 40.52 56.29 29.55 53.24
  Q 24.90 51.94 22.97 50.61
  C 19.22 48.00 12.54 44.11 8.47 46.99
  C 4.42 49.86 4.04 57.60 5.54 61.75
  C 7.56 67.31 13.27 75.87 19.58 77.05
  Q 20.25 77.17 19.91 76.58
  C 17.89 73.10 15.03 67.53 17.37 63.63
  C 19.37 60.31 23.48 60.22 25.17 63.94
  Q 25.39 64.43 25.79 64.07
  C 29.00 61.13 32.05 62.98 32.58 66.76
  C 33.35 72.22 28.40 76.62 23.71 77.96
  A 0.91 0.90 63.5 0 0 23.24 79.38
  C 30.38 88.88 41.30 92.02 52.67 91.76
  C 76.32 91.21 82.89 68.84 80.36 49.01
  A 0.38 0.37 -9.7 0 1 80.66 48.59
  L 81.54 48.43
  Q 81.74 48.39 81.78 48.60
  Q 84.39 65.67 76.54 80.83
  Q 76.28 81.35 76.85 81.46
  C 80.21 82.09 102.15 85.82 95.30 93.73
  C 91.50 98.13 78.39 100.47 72.01 101.18
  Q 50.77 103.53 29.50 101.28
  C 25.60 100.87 -0.56 97.70 3.54 89.37
  C 6.00 84.38 17.39 82.54 22.30 81.55
  Q 22.86 81.44 22.56 80.95
  L 21.47 79.16
  A 1.17 1.17 0.0 0 0 20.59 78.60
  C 19.10 78.45 17.53 78.32 16.22 77.49
  Q 7.17 71.77 4.24 62.75
  C 2.28 56.69 2.68 46.68 10.31 44.55
  C 13.42 43.68 17.55 45.66 20.89 47.67
  C 34.90 56.12 54.91 55.11 69.95 50.56
  C 73.44 49.50 78.13 47.55 79.79 44.11
  A 1.93 1.92 29.5 0 0 79.10 41.65
  C 71.61 36.78 55.20 36.79 46.47 37.29
  Q 45.94 37.32 46.00 37.85
  C 46.87 45.36 68.45 38.46 73.35 42.48
  A 2.06 2.05 47.3 0 1 73.22 45.76
  Q 71.18 47.18 68.73 47.62
  Q 48.35 51.26 28.01 47.46
  Q 24.08 46.72 20.98 44.29
  A 1.31 1.31 0.0 0 1 20.49 43.43
  Q 20.03 39.90 23.62 38.79
  Q 33.40 35.77 43.71 35.84
  Q 44.22 35.85 44.50 35.43
  C 47.16 31.54 51.64 29.20 53.77 26.57
  C 56.97 22.60 58.04 15.40 53.39 12.14
  C 45.85 6.86 37.20 18.91 46.38 22.25
  A 1.08 1.05 -43.5 0 0 47.09 22.26
  L 48.67 21.70
  Q 49.36 21.46 49.28 22.18
  L 49.23 22.61
  Q 49.15 23.37 48.42 23.58
  Q 45.15 24.47 43.21 22.26
  C 36.17 14.21 47.34 5.85 54.23 10.77
  C 60.82 15.47 58.20 25.15 52.73 29.73
  C 50.78 31.35 48.00 32.86 46.63 34.99
  Q 46.33 35.45 46.89 35.46
  Z
  M 56.25 42.97
  C 52.13 43.21 45.04 43.30 44.51 37.85
  Q 44.46 37.35 43.96 37.35
  Q 34.29 37.33 25.00 39.96
  Q 22.90 40.55 22.49 41.47
  Q 21.60 43.45 23.60 44.32
  Q 27.40 45.97 31.24 46.56
  Q 47.84 49.10 64.50 46.99
  Q 68.28 46.51 71.89 44.96
  A 0.89 0.88 -34.2 0 0 72.17 43.52
  Q 71.25 42.60 69.49 42.60
  Q 62.86 42.60 56.25 42.97
  Z
  M 25.35 67.18
  A 0.63 0.63 0.0 0 1 24.23 66.91
  Q 24.07 66.08 23.87 65.19
  C 23.17 62.06 20.09 61.78 18.69 64.49
  C 16.81 68.11 19.67 73.36 21.73 76.53
  Q 21.94 76.85 22.32 76.76
  C 26.88 75.62 32.28 71.55 31.03 66.24
  Q 30.55 64.18 28.49 64.20
  A 1.67 1.66 -70.9 0 0 27.18 64.84
  L 25.35 67.18
  Z
  M 57.63 92.88
  C 46.87 94.55 32.86 92.02 24.70 83.47
  Q 24.35 83.10 23.85 83.17
  C 18.38 84.00 9.71 85.66 5.52 89.50
  A 1.95 1.95 0.0 0 0 5.36 92.23
  C 7.92 95.20 14.01 96.84 17.71 97.61
  C 34.49 101.06 52.25 101.35 69.25 99.65
  C 76.06 98.97 89.10 97.46 94.15 92.39
  A 2.10 2.09 42.3 0 0 94.00 89.30
  C 89.42 85.48 81.50 84.00 75.64 83.15
  A 1.49 1.48 24.1 0 0 74.29 83.66
  Q 67.93 91.27 57.63 92.88
  Z"
/>
<path fill="#614d49" d="
  M 57.63 92.88
  Q 67.93 91.27 74.29 83.66
  A 1.49 1.48 24.1 0 1 75.64 83.15
  C 81.50 84.00 89.42 85.48 94.00 89.30
  A 2.10 2.09 42.3 0 1 94.15 92.39
  C 89.10 97.46 76.06 98.97 69.25 99.65
  C 52.25 101.35 34.49 101.06 17.71 97.61
  C 14.01 96.84 7.92 95.20 5.36 92.23
  A 1.95 1.95 0.0 0 1 5.52 89.50
  C 9.71 85.66 18.38 84.00 23.85 83.17
  Q 24.35 83.10 24.70 83.47
  C 32.86 92.02 46.87 94.55 57.63 92.88
  Z"
/>
</svg>
