<svg width="12" height="11" viewBox="0 0 12 11" fill="none" xmlns="http://www.w3.org/2000/svg">
<path d="M5.29474 0.838283C5.35979 0.706543 5.46039 0.595626 5.58517 0.518071C5.70996 0.440515 5.85395 0.399414 6.00087 0.399414C6.14779 0.399414 6.29178 0.440515 6.41657 0.518071C6.54135 0.595626 6.64195 0.706543 6.70699 0.838283L8.03787 3.53503L11.0137 3.96816C11.1592 3.98914 11.2959 4.05042 11.4084 4.14506C11.5209 4.2397 11.6046 4.36393 11.6501 4.50369C11.6956 4.64345 11.7011 4.79316 11.666 4.93588C11.6308 5.0786 11.5565 5.20864 11.4512 5.31128L9.29699 7.41041L9.80537 10.374C9.83027 10.5189 9.81414 10.6678 9.75879 10.804C9.70344 10.9402 9.61109 11.0581 9.49218 11.1445C9.37327 11.2309 9.23255 11.2823 9.08595 11.2929C8.93934 11.3035 8.7927 11.2728 8.66262 11.2044L6.00087 9.80441L3.33912 11.2044C3.20903 11.2728 3.06239 11.3035 2.91579 11.2929C2.76918 11.2823 2.62847 11.2309 2.50956 11.1445C2.39065 11.0581 2.2983 10.9402 2.24295 10.804C2.1876 10.6678 2.17146 10.5189 2.19637 10.374L2.70387 7.41041L0.551369 5.31041C0.44643 5.20779 0.372257 5.07789 0.33722 4.93536C0.302183 4.79283 0.307676 4.64334 0.353078 4.50376C0.398481 4.36419 0.481987 4.24008 0.594174 4.14544C0.706361 4.0508 0.842765 3.9894 0.987994 3.96816L3.96299 3.53503L5.29474 0.838283Z" fill="#FFB800"/>
</svg>
